<svg xmlns="http://www.w3.org/2000/svg" xmlns:xlink="http://www.w3.org/1999/xlink" xmlns:lucid="lucid" width="1240" height="496.5"><g transform="translate(-20 0)" lucid:page-tab-id="0_0"><path d="M260 46c0-3.3 2.7-6 6-6h148c3.3 0 6 2.7 6 6v68c0 3.3-2.7 6-6 6H266c-3.3 0-6-2.7-6-6z" stroke="#5e5e5e" stroke-width="3" fill="#ffdba9"/><path d="M276 40v80m128-80v80" stroke="#5e5e5e" stroke-width="3" fill="none"/><use xlink:href="#a" transform="matrix(1,0,0,1,285,45) translate(25.49382716049383 26.111111111111114)"/><use xlink:href="#b" transform="matrix(1,0,0,1,285,45) translate(-1.6975308641975388 52.77777777777778)"/><path d="M520 209.5c0-3.3 2.7-6 6-6h148c3.3 0 6 2.7 6 6v68c0 3.3-2.7 6-6 6H526c-3.3 0-6-2.7-6-6z" stroke="#5e5e5e" stroke-opacity=".25" stroke-width="3" fill="#a3d977" fill-opacity=".25"/><use xlink:href="#c" transform="matrix(1,0,0,1,532,215.5) translate(16.179012345679013 17.77777777777778)"/><use xlink:href="#d" transform="matrix(1,0,0,1,532,215.5) translate(30.376543209876544 44.44444444444444)"/><path d="M800 362.5c0-3.3 2.7-6 6-6h148c3.3 0 6 2.7 6 6v114c-26.72-20.04-43.36-20.04-53.44-20.04-16 0-37.28 20.04-53.28 20.04-9.92 0-26.72 0-53.28-20.04z" stroke="#5e5e5e" stroke-width="3" fill="#ff8f80"/><use xlink:href="#e" transform="matrix(1,0,0,1,805,361.5) translate(9.104938271604937 48.71527777777778)"/><use xlink:href="#f" transform="matrix(1,0,0,1,805,361.5) translate(111.32716049382715 48.71527777777778)"/><path d="M803.5 263.5c-15.74 0-28.5-8.95-28.5-20 0-8.84 7.72-16.3 19.7-19.02-.7-25.98 46.8-30.98 65.8-20.98 9.5-15 57-10 57 5 28.5-5 57 15 38 40 19 20 0 45-38 35-9.5 13-47.5 13-57 0-19 10-57 5-57-20z" stroke="#5e5e5e" stroke-opacity=".25" stroke-width="3" fill="#a3d977" fill-opacity=".25"/><use xlink:href="#g" transform="matrix(1,0,0,1,780,198.5) translate(48.004999999999995 37.46527777777778)"/><use xlink:href="#h" transform="matrix(1,0,0,1,780,198.5) translate(69.67166666666667 64.13194444444446)"/><use xlink:href="#i" transform="matrix(1,0,0,1,780,198.5) translate(116.52351851851853 64.13194444444446)"/><path d="M790 26c0-3.3 2.7-6 6-6h148c3.3 0 6 2.7 6 6v108c0 3.3-2.7 6-6 6H796c-3.3 0-6-2.7-6-6z" stroke="#5e5e5e" stroke-width="3" fill="#ffdba9"/><use xlink:href="#j" transform="matrix(1,0,0,1,802,32) translate(6.3950617283950635 26.77777777777778)"/><use xlink:href="#k" transform="matrix(1,0,0,1,802,32) translate(28.586419753086417 53.44444444444445)"/><use xlink:href="#l" transform="matrix(1,0,0,1,802,32) translate(37.166666666666664 80.11111111111111)"/><use xlink:href="#m" transform="matrix(1,0,0,1,802,32) translate(84.01851851851852 80.11111111111111)"/><path d="M260 209.5c0-3.3 2.7-6 6-6h148c3.3 0 6 2.7 6 6v68c0 3.3-2.7 6-6 6H266c-3.3 0-6-2.7-6-6z" stroke="#5e5e5e" stroke-opacity=".25" stroke-width="3" fill="#ffdba9" fill-opacity=".25"/><path d="M276 203.5v80m128-80v80" stroke="#5e5e5e" stroke-opacity=".25" stroke-width="3" fill="none"/><use xlink:href="#n" transform="matrix(1,0,0,1,285,208.5) translate(4.4135802469135825 39.44444444444444)"/><use xlink:href="#o" transform="matrix(1,0,0,1,285,208.5) translate(66.08024691358025 39.44444444444444)"/><path d="M1080 189.5c0-3.3 2.7-6 6-6h148c3.3 0 6 2.7 6 6v108c0 3.3-2.7 6-6 6h-148c-3.3 0-6-2.7-6-6z" stroke="#5e5e5e" stroke-width="3" fill="#a3d977"/><use xlink:href="#p" transform="matrix(1,0,0,1,1092,195.5) translate(17.413580246913583 38.77777777777778)"/><use xlink:href="#q" transform="matrix(1,0,0,1,1092,195.5) translate(79.08024691358025 38.77777777777778)"/><use xlink:href="#r" transform="matrix(1,0,0,1,1092,195.5) translate(30.407407407407412 65.44444444444446)"/><path d="M40 209.5c0-3.3 2.7-6 6-6h148c3.3 0 6 2.7 6 6v68c0 3.3-2.7 6-6 6H46c-3.3 0-6-2.7-6-6z" stroke="#5e5e5e" stroke-width="3" fill="#ffdba9"/><use xlink:href="#s" transform="matrix(1,0,0,1,52,215.5) translate(35.31481481481482 17.77777777777778)"/><use xlink:href="#t" transform="matrix(1,0,0,1,52,215.5) translate(28.524691358024683 44.44444444444444)"/><path d="M422.5 243.5H500" stroke="#5e5e5e" stroke-opacity=".25" stroke-width="2" fill="none"/><path d="M422.53 244.5h-1.03v-2h1.03z" fill="#5e5e5e" fill-opacity=".25"/><path d="M515.26 243.5L501 248.14v-9.28z" stroke="#5e5e5e" stroke-opacity=".25" stroke-width="2" fill="#5e5e5e" fill-opacity=".25"/><path d="M682.5 243.5H755" stroke="#5e5e5e" stroke-opacity=".25" stroke-width="2" fill="none"/><path d="M682.53 244.5h-1.03v-2h1.03z" fill="#5e5e5e" fill-opacity=".25"/><path d="M770.26 243.5L756 248.14v-9.28z" stroke="#5e5e5e" stroke-opacity=".25" stroke-width="2" fill="#5e5e5e" fill-opacity=".25"/><path d="M422.5 80H770" stroke="#5e5e5e" stroke-width="2" fill="none"/><path d="M422.53 81h-1.03v-2h1.03z" fill="#5e5e5e"/><path d="M785.26 80L771 84.64v-9.28z" stroke="#5e5e5e" stroke-width="2" fill="#5e5e5e"/><path d="M1160 306v104.5c0 3.3-2.7 6-6 6H980" stroke="#5e5e5e" stroke-width="2" fill="none"/><path d="M1161 306.03h-2V305h2z" fill="#5e5e5e"/><path d="M964.74 416.5l14.26-4.64v9.28z" stroke="#5e5e5e" stroke-width="2" fill="#5e5e5e"/><path d="M970 80h184c3.3 0 6 2.7 6 6v77.5" stroke="#5e5e5e" stroke-width="2" fill="none"/><path d="M954.74 80L969 75.36v9.28zM1160 178.76l-4.64-14.26h9.28z" stroke="#5e5e5e" stroke-width="2" fill="#5e5e5e"/><path d="M1060 243.5h-98.65" stroke="#5e5e5e" stroke-opacity=".25" stroke-width="2" fill="none"/><path d="M1075.26 243.5l-14.26 4.64v-9.28z" stroke="#5e5e5e" stroke-opacity=".25" stroke-width="2" fill="#5e5e5e" fill-opacity=".25"/><path d="M961.37 244.5h-1.5l.95-2h.55z" fill="#5e5e5e" fill-opacity=".25"/><defs><path fill="#333" d="M30-248c118-7 216 8 213 122C240-48 200 0 122 0H30v-248zM63-27c89 8 146-16 146-99s-60-101-146-95v194" id="u"/><path fill="#333" d="M114-163C36-179 61-72 57 0H25l-1-190h30c1 12-1 29 2 39 6-27 23-49 58-41v29" id="v"/><path fill="#333" d="M24-231v-30h32v30H24zM24 0v-190h32V0H24" id="w"/><path fill="#333" d="M108 0H70L1-190h34L89-25l56-165h34" id="x"/><path fill="#333" d="M100-194c63 0 86 42 84 106H49c0 40 14 67 53 68 26 1 43-12 49-29l28 8c-11 28-37 45-77 45C44 4 14-33 15-96c1-61 26-98 85-98zm52 81c6-60-76-77-97-28-3 7-6 17-6 28h103" id="y"/><g id="a"><use transform="matrix(0.06172839506172839,0,0,0.06172839506172839,0,0)" xlink:href="#u"/><use transform="matrix(0.06172839506172839,0,0,0.06172839506172839,15.987654320987653,0)" xlink:href="#v"/><use transform="matrix(0.06172839506172839,0,0,0.06172839506172839,23.333333333333332,0)" xlink:href="#w"/><use transform="matrix(0.06172839506172839,0,0,0.06172839506172839,28.209876543209873,0)" xlink:href="#x"/><use transform="matrix(0.06172839506172839,0,0,0.06172839506172839,39.32098765432099,0)" xlink:href="#y"/><use transform="matrix(0.06172839506172839,0,0,0.06172839506172839,51.666666666666664,0)" xlink:href="#v"/></g><path fill="#333" d="M212-179c-10-28-35-45-73-45-59 0-87 40-87 99 0 60 29 101 89 101 43 0 62-24 78-52l27 14C228-24 195 4 139 4 59 4 22-46 18-125c-6-104 99-153 187-111 19 9 31 26 39 46" id="z"/><path fill="#333" d="M100-194c62-1 85 37 85 99 1 63-27 99-86 99S16-35 15-95c0-66 28-99 85-99zM99-20c44 1 53-31 53-75 0-43-8-75-51-75s-53 32-53 75 10 74 51 75" id="A"/><path fill="#333" d="M210-169c-67 3-38 105-44 169h-31v-121c0-29-5-50-35-48C34-165 62-65 56 0H25l-1-190h30c1 10-1 24 2 32 10-44 99-50 107 0 11-21 27-35 58-36 85-2 47 119 55 194h-31v-121c0-29-5-49-35-48" id="B"/><path fill="#333" d="M141-36C126-15 110 5 73 4 37 3 15-17 15-53c-1-64 63-63 125-63 3-35-9-54-41-54-24 1-41 7-42 31l-33-3c5-37 33-52 76-52 45 0 72 20 72 64v82c-1 20 7 32 28 27v20c-31 9-61-2-59-35zM48-53c0 20 12 33 32 33 41-3 63-29 60-74-43 2-92-5-92 41" id="C"/><path fill="#333" d="M117-194c89-4 53 116 60 194h-32v-121c0-31-8-49-39-48C34-167 62-67 57 0H25l-1-190h30c1 10-1 24 2 32 11-22 29-35 61-36" id="D"/><path fill="#333" d="M85-194c31 0 48 13 60 33l-1-100h32l1 261h-30c-2-10 0-23-3-31C134-8 116 4 85 4 32 4 16-35 15-94c0-66 23-100 70-100zm9 24c-40 0-46 34-46 75 0 40 6 74 45 74 42 0 51-32 51-76 0-42-9-74-50-73" id="E"/><path fill="#333" d="M135-143c-3-34-86-38-87 0 15 53 115 12 119 90S17 21 10-45l28-5c4 36 97 45 98 0-10-56-113-15-118-90-4-57 82-63 122-42 12 7 21 19 24 35" id="F"/><g id="b"><use transform="matrix(0.06172839506172839,0,0,0.06172839506172839,0,0)" xlink:href="#z"/><use transform="matrix(0.06172839506172839,0,0,0.06172839506172839,15.987654320987653,0)" xlink:href="#A"/><use transform="matrix(0.06172839506172839,0,0,0.06172839506172839,28.333333333333332,0)" xlink:href="#B"/><use transform="matrix(0.06172839506172839,0,0,0.06172839506172839,46.79012345679012,0)" xlink:href="#B"/><use transform="matrix(0.06172839506172839,0,0,0.06172839506172839,65.24691358024691,0)" xlink:href="#C"/><use transform="matrix(0.06172839506172839,0,0,0.06172839506172839,77.5925925925926,0)" xlink:href="#D"/><use transform="matrix(0.06172839506172839,0,0,0.06172839506172839,89.93827160493828,0)" xlink:href="#E"/><use transform="matrix(0.06172839506172839,0,0,0.06172839506172839,102.28395061728396,0)" xlink:href="#F"/></g><path fill="#333" fill-opacity=".25" d="M39-94c74 12-11 154 75 146v23c-44 4-70-10-70-52C44-23 55-84 6-82v-22c81 4-7-162 84-157h24v23c-82-15-2 131-75 144" id="G"/><path fill="#333" fill-opacity=".25" d="M115-194c55 1 70 41 70 98S169 2 115 4C84 4 66-9 55-30l1 105H24l-1-265h31l2 30c10-21 28-34 59-34zm-8 174c40 0 45-34 45-75s-6-73-45-74c-42 0-51 32-51 76 0 43 10 73 51 73" id="H"/><path fill="#333" fill-opacity=".25" d="M114-163C36-179 61-72 57 0H25l-1-190h30c1 12-1 29 2 39 6-27 23-49 58-41v29" id="I"/><path fill="#333" fill-opacity=".25" d="M100-194c62-1 85 37 85 99 1 63-27 99-86 99S16-35 15-95c0-66 28-99 85-99zM99-20c44 1 53-31 53-75 0-43-8-75-51-75s-53 32-53 75 10 74 51 75" id="J"/><path fill="#333" fill-opacity=".25" d="M96-169c-40 0-48 33-48 73s9 75 48 75c24 0 41-14 43-38l32 2c-6 37-31 61-74 61-59 0-76-41-82-99-10-93 101-131 147-64 4 7 5 14 7 22l-32 3c-4-21-16-35-41-35" id="K"/><path fill="#333" fill-opacity=".25" d="M100-194c63 0 86 42 84 106H49c0 40 14 67 53 68 26 1 43-12 49-29l28 8c-11 28-37 45-77 45C44 4 14-33 15-96c1-61 26-98 85-98zm52 81c6-60-76-77-97-28-3 7-6 17-6 28h103" id="L"/><path fill="#333" fill-opacity=".25" d="M135-143c-3-34-86-38-87 0 15 53 115 12 119 90S17 21 10-45l28-5c4 36 97 45 98 0-10-56-113-15-118-90-4-57 82-63 122-42 12 7 21 19 24 35" id="M"/><path fill="#333" fill-opacity=".25" d="M141 0L90-78 38 0H4l68-98-65-92h35l48 74 47-74h35l-64 92 68 98h-35" id="N"/><path fill="#333" fill-opacity=".25" d="M76-40C78 24 84 88 6 75V52C86 64 9-79 80-94c-40-6-34-59-34-106 1-29-11-41-40-38v-23c44-4 70 10 70 52 0 47-12 108 38 105v22c-26 1-39 14-38 42" id="O"/><g id="c"><use transform="matrix(0.06172839506172839,0,0,0.06172839506172839,0,0)" xlink:href="#G"/><use transform="matrix(0.06172839506172839,0,0,0.06172839506172839,7.4074074074074066,0)" xlink:href="#H"/><use transform="matrix(0.06172839506172839,0,0,0.06172839506172839,19.753086419753085,0)" xlink:href="#I"/><use transform="matrix(0.06172839506172839,0,0,0.06172839506172839,27.098765432098766,0)" xlink:href="#J"/><use transform="matrix(0.06172839506172839,0,0,0.06172839506172839,39.44444444444444,0)" xlink:href="#K"/><use transform="matrix(0.06172839506172839,0,0,0.06172839506172839,50.55555555555556,0)" xlink:href="#L"/><use transform="matrix(0.06172839506172839,0,0,0.06172839506172839,62.901234567901234,0)" xlink:href="#M"/><use transform="matrix(0.06172839506172839,0,0,0.06172839506172839,74.01234567901234,0)" xlink:href="#M"/><use transform="matrix(0.06172839506172839,0,0,0.06172839506172839,85.12345679012346,0)" xlink:href="#N"/><use transform="matrix(0.06172839506172839,0,0,0.06172839506172839,96.23456790123457,0)" xlink:href="#O"/></g><path fill="#333" fill-opacity=".25" d="M24-231v-30h32v30H24zM24 0v-190h32V0H24" id="P"/><path fill="#333" fill-opacity=".25" d="M117-194c89-4 53 116 60 194h-32v-121c0-31-8-49-39-48C34-167 62-67 57 0H25l-1-190h30c1 10-1 24 2 32 11-22 29-35 61-36" id="Q"/><g id="d"><use transform="matrix(0.06172839506172839,0,0,0.06172839506172839,0,0)" xlink:href="#M"/><use transform="matrix(0.06172839506172839,0,0,0.06172839506172839,11.11111111111111,0)" xlink:href="#L"/><use transform="matrix(0.06172839506172839,0,0,0.06172839506172839,23.45679012345679,0)" xlink:href="#M"/><use transform="matrix(0.06172839506172839,0,0,0.06172839506172839,34.5679012345679,0)" xlink:href="#M"/><use transform="matrix(0.06172839506172839,0,0,0.06172839506172839,45.67901234567901,0)" xlink:href="#P"/><use transform="matrix(0.06172839506172839,0,0,0.06172839506172839,50.55555555555556,0)" xlink:href="#J"/><use transform="matrix(0.06172839506172839,0,0,0.06172839506172839,62.901234567901234,0)" xlink:href="#Q"/></g><path fill="#333" d="M206 0h-36l-40-164L89 0H53L-1-190h32L70-26l43-164h34l41 164 42-164h31" id="R"/><path fill="#333" d="M106-169C34-169 62-67 57 0H25v-261h32l-1 103c12-21 28-36 61-36 89 0 53 116 60 194h-32v-121c2-32-8-49-39-48" id="S"/><g id="e"><use transform="matrix(0.06172839506172839,0,0,0.06172839506172839,0,0)" xlink:href="#R"/><use transform="matrix(0.06172839506172839,0,0,0.06172839506172839,15.987654320987653,0)" xlink:href="#S"/><use transform="matrix(0.06172839506172839,0,0,0.06172839506172839,28.333333333333332,0)" xlink:href="#y"/><use transform="matrix(0.06172839506172839,0,0,0.06172839506172839,40.67901234567901,0)" xlink:href="#v"/><use transform="matrix(0.06172839506172839,0,0,0.06172839506172839,48.02469135802469,0)" xlink:href="#y"/><use transform="matrix(0.06172839506172839,0,0,0.06172839506172839,60.37037037037037,0)" xlink:href="#C"/><use transform="matrix(0.06172839506172839,0,0,0.06172839506172839,72.71604938271605,0)" xlink:href="#B"/><use transform="matrix(0.06172839506172839,0,0,0.06172839506172839,91.17283950617283,0)" xlink:href="#w"/></g><path fill="#333" d="M24 0v-261h32V0H24" id="T"/><path fill="#333" d="M177-190C167-65 218 103 67 71c-23-6-38-20-44-43l32-5c15 47 100 32 89-28v-30C133-14 115 1 83 1 29 1 15-40 15-95c0-56 16-97 71-98 29-1 48 16 59 35 1-10 0-23 2-32h30zM94-22c36 0 50-32 50-73 0-42-14-75-50-75-39 0-46 34-46 75s6 73 46 73" id="U"/><g id="f"><use transform="matrix(0.06172839506172839,0,0,0.06172839506172839,0,0)" xlink:href="#T"/><use transform="matrix(0.06172839506172839,0,0,0.06172839506172839,4.876543209876543,0)" xlink:href="#A"/><use transform="matrix(0.06172839506172839,0,0,0.06172839506172839,17.22222222222222,0)" xlink:href="#U"/></g><path fill="#333" fill-opacity=".25" d="M30 0v-248h33v221h125V0H30" id="V"/><path fill="#333" fill-opacity=".25" d="M141-36C126-15 110 5 73 4 37 3 15-17 15-53c-1-64 63-63 125-63 3-35-9-54-41-54-24 1-41 7-42 31l-33-3c5-37 33-52 76-52 45 0 72 20 72 64v82c-1 20 7 32 28 27v20c-31 9-61-2-59-35zM48-53c0 20 12 33 32 33 41-3 63-29 60-74-43 2-92-5-92 41" id="W"/><path fill="#333" fill-opacity=".25" d="M24 0v-261h32V0H24" id="X"/><path fill="#333" fill-opacity=".25" d="M106-169C34-169 62-67 57 0H25v-261h32l-1 103c12-21 28-36 61-36 89 0 53 116 60 194h-32v-121c2-32-8-49-39-48" id="Y"/><path fill="#333" fill-opacity=".25" d="M59-47c-2 24 18 29 38 22v24C64 9 27 4 27-40v-127H5v-23h24l9-43h21v43h35v23H59v120" id="Z"/><g id="g"><use transform="matrix(0.06172839506172839,0,0,0.06172839506172839,0,0)" xlink:href="#V"/><use transform="matrix(0.06172839506172839,0,0,0.06172839506172839,12.345679012345679,0)" xlink:href="#J"/><use transform="matrix(0.06172839506172839,0,0,0.06172839506172839,24.691358024691358,0)" xlink:href="#K"/><use transform="matrix(0.06172839506172839,0,0,0.06172839506172839,35.80246913580247,0)" xlink:href="#W"/><use transform="matrix(0.06172839506172839,0,0,0.06172839506172839,48.148148148148145,0)" xlink:href="#X"/><use transform="matrix(0.06172839506172839,0,0,0.06172839506172839,53.02469135802469,0)" xlink:href="#Y"/><use transform="matrix(0.06172839506172839,0,0,0.06172839506172839,65.37037037037037,0)" xlink:href="#J"/><use transform="matrix(0.06172839506172839,0,0,0.06172839506172839,77.71604938271605,0)" xlink:href="#M"/><use transform="matrix(0.06172839506172839,0,0,0.06172839506172839,88.82716049382717,0)" xlink:href="#Z"/></g><path fill="#333" fill-opacity=".25" d="M30-248c87 1 191-15 191 75 0 78-77 80-158 76V0H30v-248zm33 125c57 0 124 11 124-50 0-59-68-47-124-48v98" id="aa"/><g id="h"><use transform="matrix(0.06172839506172839,0,0,0.06172839506172839,0,0)" xlink:href="#aa"/><use transform="matrix(0.06172839506172839,0,0,0.06172839506172839,14.814814814814813,0)" xlink:href="#J"/><use transform="matrix(0.06172839506172839,0,0,0.06172839506172839,27.160493827160494,0)" xlink:href="#I"/><use transform="matrix(0.06172839506172839,0,0,0.06172839506172839,34.50617283950617,0)" xlink:href="#Z"/></g><path fill="#333" fill-opacity=".25" d="M205 0l-28-72H64L36 0H1l101-248h38L239 0h-34zm-38-99l-47-123c-12 45-31 82-46 123h93" id="ab"/><use transform="matrix(0.06172839506172839,0,0,0.06172839506172839,0,0)" xlink:href="#ab" id="i"/><path fill="#333" d="M39-94c74 12-11 154 75 146v23c-44 4-70-10-70-52C44-23 55-84 6-82v-22c81 4-7-162 84-157h24v23c-82-15-2 131-75 144" id="ac"/><path fill="#333" d="M233-177c-1 41-23 64-60 70L243 0h-38l-65-103H63V0H30v-248c88 3 205-21 203 71zM63-129c60-2 137 13 137-47 0-61-80-42-137-45v92" id="ad"/><path fill="#333" d="M185-189c-5-48-123-54-124 2 14 75 158 14 163 119 3 78-121 87-175 55-17-10-28-26-33-46l33-7c5 56 141 63 141-1 0-78-155-14-162-118-5-82 145-84 179-34 5 7 8 16 11 25" id="ae"/><path fill="#333" d="M84 4C-5 8 30-112 23-190h32v120c0 31 7 50 39 49 72-2 45-101 50-169h31l1 190h-30c-1-10 1-25-2-33-11 22-28 36-60 37" id="af"/><path fill="#333" d="M76-40C78 24 84 88 6 75V52C86 64 9-79 80-94c-40-6-34-59-34-106 1-29-11-41-40-38v-23c44-4 70 10 70 52 0 47-12 108 38 105v22c-26 1-39 14-38 42" id="ag"/><g id="j"><use transform="matrix(0.06172839506172839,0,0,0.06172839506172839,0,0)" xlink:href="#ac"/><use transform="matrix(0.06172839506172839,0,0,0.06172839506172839,7.4074074074074066,0)" xlink:href="#ad"/><use transform="matrix(0.06172839506172839,0,0,0.06172839506172839,23.39506172839506,0)" xlink:href="#ae"/><use transform="matrix(0.06172839506172839,0,0,0.06172839506172839,38.20987654320987,0)" xlink:href="#y"/><use transform="matrix(0.06172839506172839,0,0,0.06172839506172839,50.55555555555555,0)" xlink:href="#T"/><use transform="matrix(0.06172839506172839,0,0,0.06172839506172839,55.432098765432094,0)" xlink:href="#y"/><use transform="matrix(0.06172839506172839,0,0,0.06172839506172839,67.77777777777777,0)" xlink:href="#D"/><use transform="matrix(0.06172839506172839,0,0,0.06172839506172839,80.12345679012346,0)" xlink:href="#w"/><use transform="matrix(0.06172839506172839,0,0,0.06172839506172839,85,0)" xlink:href="#af"/><use transform="matrix(0.06172839506172839,0,0,0.06172839506172839,97.34567901234568,0)" xlink:href="#B"/><use transform="matrix(0.06172839506172839,0,0,0.06172839506172839,115.80246913580247,0)" xlink:href="#ag"/></g><path fill="#333" d="M115-194c53 0 69 39 70 98 0 66-23 100-70 100C84 3 66-7 56-30L54 0H23l1-261h32v101c10-23 28-34 59-34zm-8 174c40 0 45-34 45-75 0-40-5-75-45-74-42 0-51 32-51 76 0 43 10 73 51 73" id="ah"/><g id="k"><use transform="matrix(0.06172839506172839,0,0,0.06172839506172839,0,0)" xlink:href="#ah"/><use transform="matrix(0.06172839506172839,0,0,0.06172839506172839,12.345679012345679,0)" xlink:href="#v"/><use transform="matrix(0.06172839506172839,0,0,0.06172839506172839,19.691358024691358,0)" xlink:href="#A"/><use transform="matrix(0.06172839506172839,0,0,0.06172839506172839,32.03703703703704,0)" xlink:href="#R"/><use transform="matrix(0.06172839506172839,0,0,0.06172839506172839,48.02469135802469,0)" xlink:href="#F"/><use transform="matrix(0.06172839506172839,0,0,0.06172839506172839,59.1358024691358,0)" xlink:href="#y"/><use transform="matrix(0.06172839506172839,0,0,0.06172839506172839,71.48148148148148,0)" xlink:href="#v"/></g><path fill="#333" d="M30-248c87 1 191-15 191 75 0 78-77 80-158 76V0H30v-248zm33 125c57 0 124 11 124-50 0-59-68-47-124-48v98" id="ai"/><path fill="#333" d="M59-47c-2 24 18 29 38 22v24C64 9 27 4 27-40v-127H5v-23h24l9-43h21v43h35v23H59v120" id="aj"/><g id="l"><use transform="matrix(0.06172839506172839,0,0,0.06172839506172839,0,0)" xlink:href="#ai"/><use transform="matrix(0.06172839506172839,0,0,0.06172839506172839,14.814814814814813,0)" xlink:href="#A"/><use transform="matrix(0.06172839506172839,0,0,0.06172839506172839,27.160493827160494,0)" xlink:href="#v"/><use transform="matrix(0.06172839506172839,0,0,0.06172839506172839,34.50617283950617,0)" xlink:href="#aj"/></g><path fill="#333" d="M160-131c35 5 61 23 61 61C221 17 115-2 30 0v-248c76 3 177-17 177 60 0 33-19 50-47 57zm-97-11c50-1 110 9 110-42 0-47-63-36-110-37v79zm0 115c55-2 124 14 124-45 0-56-70-42-124-44v89" id="ak"/><use transform="matrix(0.06172839506172839,0,0,0.06172839506172839,0,0)" xlink:href="#ak" id="m"/><path fill="#333" fill-opacity=".25" d="M185-189c-5-48-123-54-124 2 14 75 158 14 163 119 3 78-121 87-175 55-17-10-28-26-33-46l33-7c5 56 141 63 141-1 0-78-155-14-162-118-5-82 145-84 179-34 5 7 8 16 11 25" id="al"/><path fill="#333" fill-opacity=".25" d="M179-190L93 31C79 59 56 82 12 73V49c39 6 53-20 64-50L1-190h34L92-34l54-156h33" id="am"/><g id="n"><use transform="matrix(0.06172839506172839,0,0,0.06172839506172839,0,0)" xlink:href="#al"/><use transform="matrix(0.06172839506172839,0,0,0.06172839506172839,14.814814814814813,0)" xlink:href="#Y"/><use transform="matrix(0.06172839506172839,0,0,0.06172839506172839,27.160493827160494,0)" xlink:href="#P"/><use transform="matrix(0.06172839506172839,0,0,0.06172839506172839,32.03703703703704,0)" xlink:href="#Q"/><use transform="matrix(0.06172839506172839,0,0,0.06172839506172839,44.382716049382715,0)" xlink:href="#am"/></g><g id="o"><use transform="matrix(0.06172839506172839,0,0,0.06172839506172839,0,0)" xlink:href="#ab"/><use transform="matrix(0.06172839506172839,0,0,0.06172839506172839,14.814814814814813,0)" xlink:href="#H"/><use transform="matrix(0.06172839506172839,0,0,0.06172839506172839,27.160493827160494,0)" xlink:href="#H"/></g><path fill="#333" d="M179-190L93 31C79 59 56 82 12 73V49c39 6 53-20 64-50L1-190h34L92-34l54-156h33" id="an"/><g id="p"><use transform="matrix(0.06172839506172839,0,0,0.06172839506172839,0,0)" xlink:href="#ae"/><use transform="matrix(0.06172839506172839,0,0,0.06172839506172839,14.814814814814813,0)" xlink:href="#S"/><use transform="matrix(0.06172839506172839,0,0,0.06172839506172839,27.160493827160494,0)" xlink:href="#w"/><use transform="matrix(0.06172839506172839,0,0,0.06172839506172839,32.03703703703704,0)" xlink:href="#D"/><use transform="matrix(0.06172839506172839,0,0,0.06172839506172839,44.382716049382715,0)" xlink:href="#an"/></g><path fill="#333" d="M205 0l-28-72H64L36 0H1l101-248h38L239 0h-34zm-38-99l-47-123c-12 45-31 82-46 123h93" id="ao"/><path fill="#333" d="M115-194c55 1 70 41 70 98S169 2 115 4C84 4 66-9 55-30l1 105H24l-1-265h31l2 30c10-21 28-34 59-34zm-8 174c40 0 45-34 45-75s-6-73-45-74c-42 0-51 32-51 76 0 43 10 73 51 73" id="ap"/><g id="q"><use transform="matrix(0.06172839506172839,0,0,0.06172839506172839,0,0)" xlink:href="#ao"/><use transform="matrix(0.06172839506172839,0,0,0.06172839506172839,14.814814814814813,0)" xlink:href="#ap"/><use transform="matrix(0.06172839506172839,0,0,0.06172839506172839,27.160493827160494,0)" xlink:href="#ap"/></g><g id="r"><use transform="matrix(0.06172839506172839,0,0,0.06172839506172839,0,0)" xlink:href="#ae"/><use transform="matrix(0.06172839506172839,0,0,0.06172839506172839,14.814814814814813,0)" xlink:href="#y"/><use transform="matrix(0.06172839506172839,0,0,0.06172839506172839,27.160493827160494,0)" xlink:href="#v"/><use transform="matrix(0.06172839506172839,0,0,0.06172839506172839,34.50617283950617,0)" xlink:href="#x"/><use transform="matrix(0.06172839506172839,0,0,0.06172839506172839,45.61728395061728,0)" xlink:href="#w"/><use transform="matrix(0.06172839506172839,0,0,0.06172839506172839,50.49382716049382,0)" xlink:href="#D"/><use transform="matrix(0.06172839506172839,0,0,0.06172839506172839,62.8395061728395,0)" xlink:href="#U"/></g><g id="s"><use transform="matrix(0.06172839506172839,0,0,0.06172839506172839,0,0)" xlink:href="#ai"/><use transform="matrix(0.06172839506172839,0,0,0.06172839506172839,14.814814814814813,0)" xlink:href="#C"/><use transform="matrix(0.06172839506172839,0,0,0.06172839506172839,27.160493827160494,0)" xlink:href="#v"/><use transform="matrix(0.06172839506172839,0,0,0.06172839506172839,34.50617283950617,0)" xlink:href="#y"/><use transform="matrix(0.06172839506172839,0,0,0.06172839506172839,46.85185185185185,0)" xlink:href="#D"/><use transform="matrix(0.06172839506172839,0,0,0.06172839506172839,59.197530864197525,0)" xlink:href="#aj"/></g><g id="t"><use transform="matrix(0.06172839506172839,0,0,0.06172839506172839,0,0)" xlink:href="#ae"/><use transform="matrix(0.06172839506172839,0,0,0.06172839506172839,14.814814814814813,0)" xlink:href="#y"/><use transform="matrix(0.06172839506172839,0,0,0.06172839506172839,27.160493827160494,0)" xlink:href="#F"/><use transform="matrix(0.06172839506172839,0,0,0.06172839506172839,38.27160493827161,0)" xlink:href="#F"/><use transform="matrix(0.06172839506172839,0,0,0.06172839506172839,49.38271604938272,0)" xlink:href="#w"/><use transform="matrix(0.06172839506172839,0,0,0.06172839506172839,54.25925925925927,0)" xlink:href="#A"/><use transform="matrix(0.06172839506172839,0,0,0.06172839506172839,66.60493827160495,0)" xlink:href="#D"/></g></defs></g></svg>